<?xml version="1.0" standalone="no"?><!DOCTYPE svg PUBLIC "-//W3C//DTD SVG 1.1//EN" "http://www.w3.org/Graphics/SVG/1.1/DTD/svg11.dtd"><svg t="1643817691141" class="icon" viewBox="0 0 1024 1024" version="1.1" xmlns="http://www.w3.org/2000/svg" p-id="4058" xmlns:xlink="http://www.w3.org/1999/xlink" width="200" height="200"><defs><style type="text/css"></style></defs><path d="M607.820905 135.524034l-28.304264-28.304264a37.739019 37.739019 0 0 0-27.792301-11.482608 37.812156 37.812156 0 0 0-27.646025 11.482608L299.180094 332.264267l392.237126 392.383401 224.898221-224.971359c7.533176-7.313763 11.702021-17.260481 11.482608-27.792301a37.812156 37.812156 0 0 0-11.482608-27.646025l-28.304264-28.231126-83.596314 84.693379a41.322763 41.322763 0 0 1-28.816228 11.555746 37.739019 37.739019 0 0 1-27.719163-11.555746 41.249625 41.249625 0 0 1-11.482608-28.74309 37.812156 37.812156 0 0 1 11.482608-27.719163l84.693379-84.839654-56.53539-55.438326-28.157989 27.207199a36.276266 36.276266 0 0 1-27.7923 12.579673 41.249625 41.249625 0 0 1-28.669952-11.555746 38.397257 38.397257 0 0 1-11.555746-28.231126 36.861367 36.861367 0 0 1 12.579672-28.304264l27.134062-28.231126-55.438326-55.438326-141.155631 140.204842a37.739019 37.739019 0 0 1-27.792301 11.555746 37.739019 37.739019 0 0 1-27.646025-11.555746 38.397257 38.397257 0 0 1-11.482609-28.231126 38.397257 38.397257 0 0 1 11.482609-28.304264l140.131705-140.204843h0.073137z m-224.971359 729.401614l-111.900579 111.900579c-30.717806 31.449182-68.017999 47.173773-111.900578 47.173773-43.955717 0-81.182773-15.724591-111.900579-47.173773A150.663524 150.663524 0 0 1 0.047175 864.925648c0-43.955717 15.651453-81.25591 47.100635-111.973716l111.827441-111.900579-84.766517-84.839654a114.094708 114.094708 0 0 1-34.447825-83.669452c0-32.76566 11.848297-61.069924 35.54489-84.839654l111.900578-111.900579c7.313763-7.533176 17.260481-11.702021 27.719163-11.555746a37.812156 37.812156 0 0 1 27.792301 11.555746L495.700914 23.623455c15.358903-15.358903 34.008999-23.257767 55.950289-23.550317 21.209914-0.731376 41.615313 7.898864 55.950289 23.550317l393.33419 392.383402c15.358903 15.358903 22.965217 34.008999 22.965217 55.950289 0 22.014428-8.04514 40.957074-24.062281 57.047354l-252.032283 252.251696c7.460039 7.240626 11.628884 17.260481 11.482608 27.646025a37.739019 37.739019 0 0 1-11.482608 27.792301l-111.900579 112.997643a114.533533 114.533533 0 0 1-84.254553 34.520963c-33.131348 0-61.216199-11.482608-84.181416-34.520963l-84.766516-84.766517h0.073137z m196.593957 28.231127l84.839655-83.74259-448.772517-449.942719L130.963538 444.237983a37.739019 37.739019 0 0 0-11.555746 27.719163c0 10.678094 4.095707 20.990501 11.555746 28.74309l393.187915 392.456539c7.313763 7.533176 17.260481 11.702021 27.7923 11.482608a37.812156 37.812156 0 0 0 27.719163-11.482608h-0.146275z m-363.932862 28.231126l111.900579-111.900579-111.900579-113.07078L102.439861 809.414185c-15.358903 15.358903-23.038354 34.008999-23.038355 56.023427 0 21.94129 7.679451 40.591386 23.038355 55.950289 16.090279 15.358903 34.886651 23.038354 56.53539 23.038354 21.575602 0 40.445111-7.679451 56.462253-23.038354z" p-id="4059" fill="#ffffff"></path></svg>