<?xml version="1.0" standalone="no"?><!DOCTYPE svg PUBLIC "-//W3C//DTD SVG 1.1//EN" "http://www.w3.org/Graphics/SVG/1.1/DTD/svg11.dtd"><svg t="1643738010423" class="icon" viewBox="0 0 1024 1024" version="1.1" xmlns="http://www.w3.org/2000/svg" p-id="3029" xmlns:xlink="http://www.w3.org/1999/xlink" width="200" height="200"><defs><style type="text/css"></style></defs><path d="M917.333333 42.666667h-810.666666A106.794667 106.794667 0 0 0 0 149.333333v725.333334C0 933.461333 47.872 981.333333 106.666667 981.333333h810.666666c58.794667 0 106.666667-47.872 106.666667-106.666666v-725.333334C1024 90.538667 976.128 42.666667 917.333333 42.666667z m-640 85.333333a21.333333 21.333333 0 1 1 0 42.666667 21.333333 21.333333 0 0 1 0-42.666667z m-85.333333 0a21.333333 21.333333 0 1 1 0 42.666667 21.333333 21.333333 0 0 1 0-42.666667z m-85.333333 0a21.333333 21.333333 0 1 1 0 42.666667 21.333333 21.333333 0 0 1 0-42.666667zM981.333333 874.666667c0 35.285333-28.714667 64-64 64h-810.666666c-35.285333 0-64-28.714667-64-64V640h192a21.333333 21.333333 0 0 0 19.797333-13.397333l58.666667-146.688 71.253333 356.309333a21.333333 21.333333 0 0 0 40.917333 3.285333l106.837334-284.928 66.304 198.826667c2.986667 9.002667 12.117333 15.744 21.034666 14.592a21.333333 21.333333 0 0 0 19.882667-16.128l69.333333-277.333333 60.842667 152.064A21.333333 21.333333 0 0 0 789.333333 640H981.333333v234.666667z m0-277.333334h-177.578666l-79.957334-199.936a21.888 21.888 0 0 0-21.248-13.354666 21.333333 21.333333 0 0 0-19.242666 16.128l-67.584 270.250666-62.165334-186.496a21.333333 21.333333 0 0 0-40.234666-0.768l-101.76 271.36-70.698667-353.408a21.333333 21.333333 0 0 0-40.704-3.712L220.245333 597.333333H42.666667V256h938.666666v341.333333z" p-id="3030" fill="#ffffff"></path></svg>